<svg xmlns="http://www.w3.org/2000/svg" xmlns:xlink="http://www.w3.org/1999/xlink" contentStyleType="text/css" height="166px" preserveAspectRatio="none" style="width:316px;height:166px;background:#FFFFFF;" version="1.1" viewBox="0 0 316 166" width="316px" zoomAndPan="magnify"><defs/><g><path d="M10,26.9167 C10,28.2053 11.0448,29.25 12.3333,29.25 L26.3333,29.25 C27.6219,29.25 28.6667,28.2053 28.6667,26.9167 L28.6667,17 C28.6667,15.7114 27.6219,14.6667 26.3333,14.6667 L21.0833,14.6667 C19.0055,14.6667 19.3333,11.75 16.1612,11.75 L12.3333,11.75 C11.0448,11.75 10,12.7948 10,14.0833 L10,26.9167 " fill="#226699" style="stroke:;stroke-width:0.0;stroke-dasharray:;"/><path d="M28.8627,17 L25.0348,17 C21.8627,17 21.8948,19.9167 19.8169,19.9167 L14.5669,19.9167 C13.2783,19.9167 12.1274,20.9614 11.9968,22.25 L11.7092,24.5098 L11.4035,26.9167 L11.3918,26.9155 C11.3242,27.2696 10.9998,27.4983 10.6335,27.4983 C10.2584,27.4983 9.9883,27.2025 10.007,26.8309 C10.0058,26.8601 10,26.8875 10,26.9167 C10,28.0857 10.8622,29.0447 11.9833,29.2144 C12.0866,29.2366 12.1998,29.25 12.3333,29.25 L27.5,29.25 C28.7886,29.25 29.9395,28.2053 30.0702,26.9167 L30.9586,19.3333 C31.0898,18.0448 30.1513,17 28.8627,17 " fill="#55ACEE" style="stroke:;stroke-width:0.0;stroke-dasharray:;"/><text fill="#000000" font-family="Courier" font-size="14" lengthAdjust="spacing" textLength="67.4297" x="31" y="29.4482">OneDrive</text><path d="M31,51.6667 C31,52.9553 32.0448,54 33.3333,54 L47.3333,54 C48.6219,54 49.6667,52.9553 49.6667,51.6667 L49.6667,41.75 C49.6667,40.4614 48.6219,39.4167 47.3333,39.4167 L42.0833,39.4167 C40.0055,39.4167 40.3333,36.5 37.1612,36.5 L33.3333,36.5 C32.0448,36.5 31,37.5448 31,38.8333 L31,51.6667 " fill="#226699" style="stroke:;stroke-width:0.0;stroke-dasharray:;"/><path d="M49.8627,41.75 L46.0348,41.75 C42.8627,41.75 42.8948,44.6667 40.8169,44.6667 L35.5669,44.6667 C34.2783,44.6667 33.1274,45.7114 32.9968,47 L32.7092,49.2598 L32.4035,51.6667 L32.3918,51.6655 C32.3242,52.0196 31.9998,52.2483 31.6335,52.2483 C31.2584,52.2483 30.9883,51.9525 31.007,51.5809 C31.0058,51.6101 31,51.6375 31,51.6667 C31,52.8357 31.8622,53.7947 32.9833,53.9644 C33.0866,53.9866 33.1998,54 33.3333,54 L48.5,54 C49.7886,54 50.9395,52.9553 51.0702,51.6667 L51.9586,44.0833 C52.0898,42.7948 51.1513,41.75 49.8627,41.75 " fill="#55ACEE" style="stroke:;stroke-width:0.0;stroke-dasharray:;"/><text fill="#000000" font-family="Courier" font-size="14" lengthAdjust="spacing" textLength="84.2871" x="52" y="54.1982">Documenten</text><path d="M52,76.4167 C52,77.7053 53.0448,78.75 54.3333,78.75 L68.3333,78.75 C69.6219,78.75 70.6667,77.7053 70.6667,76.4167 L70.6667,66.5 C70.6667,65.2114 69.6219,64.1667 68.3333,64.1667 L63.0833,64.1667 C61.0055,64.1667 61.3333,61.25 58.1612,61.25 L54.3333,61.25 C53.0448,61.25 52,62.2948 52,63.5833 L52,76.4167 " fill="#226699" style="stroke:;stroke-width:0.0;stroke-dasharray:;"/><path d="M70.8627,66.5 L67.0348,66.5 C63.8627,66.5 63.8948,69.4167 61.8169,69.4167 L56.5669,69.4167 C55.2783,69.4167 54.1274,70.4614 53.9968,71.75 L53.7092,74.0098 L53.4035,76.4167 L53.3918,76.4155 C53.3242,76.7696 52.9998,76.9983 52.6335,76.9983 C52.2584,76.9983 51.9883,76.7025 52.007,76.3309 C52.0058,76.3601 52,76.3875 52,76.4167 C52,77.5857 52.8622,78.5447 53.9833,78.7144 C54.0866,78.7366 54.1998,78.75 54.3333,78.75 L69.5,78.75 C70.7886,78.75 71.9395,77.7053 72.0702,76.4167 L72.9586,68.8333 C73.0898,67.5448 72.1513,66.5 70.8627,66.5 " fill="#55ACEE" style="stroke:;stroke-width:0.0;stroke-dasharray:;"/><text fill="#000000" font-family="Courier" font-size="14" lengthAdjust="spacing" textLength="109.5732" x="73" y="78.9482">Dommelproject</text><path d="M91.9088,89.8418 L86.6588,84.5918 C86.4482,84.3813 86.1559,84.25 85.8333,84.25 C85.1893,84.25 84.6673,84.7727 84.6667,85.4167 C84.6667,85.7387 84.7973,86.0309 85.0085,86.2421 L82.7574,88.4932 L88.0074,93.7432 L90.2585,91.4921 C90.4697,91.7027 90.7613,91.8333 91.0833,91.8333 C91.7273,91.8333 92.2506,91.3107 92.25,90.6667 C92.25,90.3447 92.1193,90.053 91.9088,89.8418 " fill="#E1E8ED" style="stroke:;stroke-width:0.0;stroke-dasharray:;"/><path d="M85.8333,84.25 L77.0833,84.25 C75.7948,84.25 74.75,85.2948 74.75,86.5833 L74.75,102.9167 C74.75,104.2053 75.7948,105.25 77.0833,105.25 L89.9167,105.25 C91.2053,105.25 92.25,104.2053 92.25,102.9167 L92.25,90.6667 L87,90.6667 C86.4167,90.6667 85.8333,90.0833 85.8333,89.5 L85.8333,84.25 " fill="#CCD6DD" style="stroke:;stroke-width:0.0;stroke-dasharray:;"/><path d="M85.8333,84.25 L84.6667,84.25 L84.6667,89.5 C84.6667,90.7886 85.7114,91.8333 87,91.8333 L92.25,91.8333 L92.25,90.6667 L87,90.6667 C86.4167,90.6667 85.8333,90.0833 85.8333,89.5 L85.8333,84.25 M82.9167,88.9167 C82.9167,89.2387 82.6553,89.5 82.3333,89.5 L77.6667,89.5 C77.3447,89.5 77.0833,89.2387 77.0833,88.9167 C77.0833,88.5947 77.3447,88.3333 77.6667,88.3333 L82.3333,88.3333 C82.6553,88.3333 82.9167,88.5947 82.9167,88.9167 M82.9167,91.25 C82.9167,91.572 82.6553,91.8333 82.3333,91.8333 L77.6667,91.8333 C77.3447,91.8333 77.0833,91.572 77.0833,91.25 C77.0833,90.928 77.3447,90.6667 77.6667,90.6667 L82.3333,90.6667 C82.6553,90.6667 82.9167,90.928 82.9167,91.25 M89.9167,93.5833 C89.9167,93.9053 89.6559,94.1667 89.3333,94.1667 L77.6667,94.1667 C77.3447,94.1667 77.0833,93.9053 77.0833,93.5833 C77.0833,93.2613 77.3447,93 77.6667,93 L89.3333,93 C89.6559,93 89.9167,93.2613 89.9167,93.5833 M89.9167,95.9167 C89.9167,96.2393 89.6559,96.5 89.3333,96.5 L77.6667,96.5 C77.3447,96.5 77.0833,96.2393 77.0833,95.9167 C77.0833,95.5941 77.3447,95.3333 77.6667,95.3333 L89.3333,95.3333 C89.6559,95.3333 89.9167,95.5941 89.9167,95.9167 M89.9167,98.25 C89.9167,98.5726 89.6559,98.8333 89.3333,98.8333 L77.6667,98.8333 C77.3447,98.8333 77.0833,98.5726 77.0833,98.25 C77.0833,97.9274 77.3447,97.6667 77.6667,97.6667 L89.3333,97.6667 C89.6559,97.6667 89.9167,97.9274 89.9167,98.25 M89.9167,100.5833 C89.9167,100.9059 89.6559,101.1667 89.3333,101.1667 L77.6667,101.1667 C77.3447,101.1667 77.0833,100.9059 77.0833,100.5833 C77.0833,100.2608 77.3447,100 77.6667,100 L89.3333,100 C89.6559,100 89.9167,100.2608 89.9167,100.5833 " fill="#99AAB5" style="stroke:;stroke-width:0.0;stroke-dasharray:;"/><text fill="#000000" font-family="Courier" font-size="14" lengthAdjust="spacing" textLength="160.1455" x="94" y="103.6982">01&#160;Excel&#160;basis.xlsx</text><path d="M91.9088,114.5918 L86.6588,109.3418 C86.4482,109.1313 86.1559,109 85.8333,109 C85.1893,109 84.6673,109.5227 84.6667,110.1667 C84.6667,110.4887 84.7973,110.7809 85.0085,110.9921 L82.7574,113.2432 L88.0074,118.4932 L90.2585,116.2421 C90.4697,116.4527 90.7613,116.5833 91.0833,116.5833 C91.7273,116.5833 92.2506,116.0607 92.25,115.4167 C92.25,115.0947 92.1193,114.803 91.9088,114.5918 " fill="#E1E8ED" style="stroke:;stroke-width:0.0;stroke-dasharray:;"/><path d="M85.8333,109 L77.0833,109 C75.7948,109 74.75,110.0448 74.75,111.3333 L74.75,127.6667 C74.75,128.9553 75.7948,130 77.0833,130 L89.9167,130 C91.2053,130 92.25,128.9553 92.25,127.6667 L92.25,115.4167 L87,115.4167 C86.4167,115.4167 85.8333,114.8333 85.8333,114.25 L85.8333,109 " fill="#CCD6DD" style="stroke:;stroke-width:0.0;stroke-dasharray:;"/><path d="M85.8333,109 L84.6667,109 L84.6667,114.25 C84.6667,115.5386 85.7114,116.5833 87,116.5833 L92.25,116.5833 L92.25,115.4167 L87,115.4167 C86.4167,115.4167 85.8333,114.8333 85.8333,114.25 L85.8333,109 M82.9167,113.6667 C82.9167,113.9887 82.6553,114.25 82.3333,114.25 L77.6667,114.25 C77.3447,114.25 77.0833,113.9887 77.0833,113.6667 C77.0833,113.3447 77.3447,113.0833 77.6667,113.0833 L82.3333,113.0833 C82.6553,113.0833 82.9167,113.3447 82.9167,113.6667 M82.9167,116 C82.9167,116.322 82.6553,116.5833 82.3333,116.5833 L77.6667,116.5833 C77.3447,116.5833 77.0833,116.322 77.0833,116 C77.0833,115.678 77.3447,115.4167 77.6667,115.4167 L82.3333,115.4167 C82.6553,115.4167 82.9167,115.678 82.9167,116 M89.9167,118.3333 C89.9167,118.6553 89.6559,118.9167 89.3333,118.9167 L77.6667,118.9167 C77.3447,118.9167 77.0833,118.6553 77.0833,118.3333 C77.0833,118.0113 77.3447,117.75 77.6667,117.75 L89.3333,117.75 C89.6559,117.75 89.9167,118.0113 89.9167,118.3333 M89.9167,120.6667 C89.9167,120.9893 89.6559,121.25 89.3333,121.25 L77.6667,121.25 C77.3447,121.25 77.0833,120.9893 77.0833,120.6667 C77.0833,120.3441 77.3447,120.0833 77.6667,120.0833 L89.3333,120.0833 C89.6559,120.0833 89.9167,120.3441 89.9167,120.6667 M89.9167,123 C89.9167,123.3226 89.6559,123.5833 89.3333,123.5833 L77.6667,123.5833 C77.3447,123.5833 77.0833,123.3226 77.0833,123 C77.0833,122.6774 77.3447,122.4167 77.6667,122.4167 L89.3333,122.4167 C89.6559,122.4167 89.9167,122.6774 89.9167,123 M89.9167,125.3333 C89.9167,125.6559 89.6559,125.9167 89.3333,125.9167 L77.6667,125.9167 C77.3447,125.9167 77.0833,125.6559 77.0833,125.3333 C77.0833,125.0108 77.3447,124.75 77.6667,124.75 L89.3333,124.75 C89.6559,124.75 89.9167,125.0108 89.9167,125.3333 " fill="#99AAB5" style="stroke:;stroke-width:0.0;stroke-dasharray:;"/><text fill="#000000" font-family="Courier" font-size="14" lengthAdjust="spacing" textLength="210.7178" x="94" y="128.4482">02&#160;Dommel&#160;opdrachten.xlsx</text><path d="M91.9088,139.3418 L86.6588,134.0918 C86.4482,133.8813 86.1559,133.75 85.8333,133.75 C85.1893,133.75 84.6673,134.2727 84.6667,134.9167 C84.6667,135.2387 84.7973,135.5309 85.0085,135.7421 L82.7574,137.9932 L88.0074,143.2432 L90.2585,140.9921 C90.4697,141.2027 90.7613,141.3333 91.0833,141.3333 C91.7273,141.3333 92.2506,140.8107 92.25,140.1667 C92.25,139.8447 92.1193,139.553 91.9088,139.3418 " fill="#E1E8ED" style="stroke:;stroke-width:0.0;stroke-dasharray:;"/><path d="M85.8333,133.75 L77.0833,133.75 C75.7948,133.75 74.75,134.7948 74.75,136.0833 L74.75,152.4167 C74.75,153.7053 75.7948,154.75 77.0833,154.75 L89.9167,154.75 C91.2053,154.75 92.25,153.7053 92.25,152.4167 L92.25,140.1667 L87,140.1667 C86.4167,140.1667 85.8333,139.5833 85.8333,139 L85.8333,133.75 " fill="#CCD6DD" style="stroke:;stroke-width:0.0;stroke-dasharray:;"/><path d="M85.8333,133.75 L84.6667,133.75 L84.6667,139 C84.6667,140.2886 85.7114,141.3333 87,141.3333 L92.25,141.3333 L92.25,140.1667 L87,140.1667 C86.4167,140.1667 85.8333,139.5833 85.8333,139 L85.8333,133.75 M82.9167,138.4167 C82.9167,138.7387 82.6553,139 82.3333,139 L77.6667,139 C77.3447,139 77.0833,138.7387 77.0833,138.4167 C77.0833,138.0947 77.3447,137.8333 77.6667,137.8333 L82.3333,137.8333 C82.6553,137.8333 82.9167,138.0947 82.9167,138.4167 M82.9167,140.75 C82.9167,141.072 82.6553,141.3333 82.3333,141.3333 L77.6667,141.3333 C77.3447,141.3333 77.0833,141.072 77.0833,140.75 C77.0833,140.428 77.3447,140.1667 77.6667,140.1667 L82.3333,140.1667 C82.6553,140.1667 82.9167,140.428 82.9167,140.75 M89.9167,143.0833 C89.9167,143.4053 89.6559,143.6667 89.3333,143.6667 L77.6667,143.6667 C77.3447,143.6667 77.0833,143.4053 77.0833,143.0833 C77.0833,142.7613 77.3447,142.5 77.6667,142.5 L89.3333,142.5 C89.6559,142.5 89.9167,142.7613 89.9167,143.0833 M89.9167,145.4167 C89.9167,145.7393 89.6559,146 89.3333,146 L77.6667,146 C77.3447,146 77.0833,145.7393 77.0833,145.4167 C77.0833,145.0941 77.3447,144.8333 77.6667,144.8333 L89.3333,144.8333 C89.6559,144.8333 89.9167,145.0941 89.9167,145.4167 M89.9167,147.75 C89.9167,148.0726 89.6559,148.3333 89.3333,148.3333 L77.6667,148.3333 C77.3447,148.3333 77.0833,148.0726 77.0833,147.75 C77.0833,147.4274 77.3447,147.1667 77.6667,147.1667 L89.3333,147.1667 C89.6559,147.1667 89.9167,147.4274 89.9167,147.75 M89.9167,150.0833 C89.9167,150.4059 89.6559,150.6667 89.3333,150.6667 L77.6667,150.6667 C77.3447,150.6667 77.0833,150.4059 77.0833,150.0833 C77.0833,149.7608 77.3447,149.5 77.6667,149.5 L89.3333,149.5 C89.6559,149.5 89.9167,149.7608 89.9167,150.0833 " fill="#99AAB5" style="stroke:;stroke-width:0.0;stroke-dasharray:;"/><text fill="#000000" font-family="Courier" font-size="14" lengthAdjust="spacing" textLength="168.5742" x="94" y="153.1982">03&#160;Eindopdracht.xlsx</text><!--SRC=[ZOuxRuD048Jx-nLRseKn42jOL5OCYKH0jk97VuOrkUZOG_T0vD_d4BBIkblDpZSpEsEvjdSXqR3rWJ3JOi1rfchN8LaaVtOTobwh7wpjEemW7skKSED6c62KPdmAYs4MGFMDvlMtjpmFlq0kg7cGCxT3QkRLx2WvsKjLme3Q24KG1N4ORu9aSU8MJjX3c40KfT4sZHAudFSmlPTiyN4imIYdQuH66Al5pLdFBrd11mvVZgpeC8L3ZrHadmy1SXg4LZHjPSMr-ZUyRbPlOchKVWbSAvRXdJjfFL6hHb2R-lRtrPQLd5h7Mv-DnFRAv-hV5CX9-GS0]--></g></svg>